<svg version="1.1" viewBox="0.0 0.0 960.0 720.0" fill="none" stroke="none" stroke-linecap="square" stroke-miterlimit="10" xmlns:xlink="http://www.w3.org/1999/xlink" xmlns="http://www.w3.org/2000/svg"><clipPath id="p.0"><path d="m0 0l960.0 0l0 720.0l-960.0 0l0 -720.0z" clip-rule="nonzero"/></clipPath><g clip-path="url(#p.0)"><path fill="#000000" fill-opacity="0.0" d="m0 0l960.0 0l0 720.0l-960.0 0z" fill-rule="evenodd"/><defs><linearGradient id="p.1" gradientUnits="userSpaceOnUse" gradientTransform="matrix(30.983836326656842 0.0 0.0 30.983836326656842 0.0 0.0)" spreadMethod="pad" x1="0.0" y1="16.51824493407295" x2="30.983836326656846" y2="16.51824493407295"><stop offset="0.0" stop-color="#8fccff"/><stop offset="1.0" stop-color="#36ffa0"/></linearGradient></defs><path fill="url(#p.1)" d="m0 -1.3149606l959.9981 0l0 416.80096c-479.99905 0 -479.99905 158.8088 -959.9981 68.57654z" fill-rule="evenodd"/><defs><linearGradient id="p.2" gradientUnits="userSpaceOnUse" gradientTransform="matrix(-30.98383627371126 0.0 0.0 30.98383627371126 0.0 0.0)" spreadMethod="pad" x1="-30.98389726563743" y1="15.178592035670992" x2="-6.099192617485608E-5" y2="15.178592035670992"><stop offset="0.0" stop-color="#8fccff"/><stop offset="1.0" stop-color="#36ffa0"/></linearGradient></defs><path fill="url(#p.2)" d="m960.0 -1.3149606l-959.9981 0l0 383.08444c479.99905 0 479.99905 145.96222 959.9981 63.029144z" fill-rule="evenodd"/><defs><linearGradient id="p.3" gradientUnits="userSpaceOnUse" gradientTransform="matrix(30.983836326656842 0.0 0.0 30.983836326656842 0.0 0.0)" spreadMethod="pad" x1="0.0" y1="12.876108507384023" x2="30.983836326656846" y2="12.876108507384023"><stop offset="0.0" stop-color="#8fccff"/><stop offset="1.0" stop-color="#36ffa0"/></linearGradient></defs><path fill="url(#p.3)" d="m0 -1.3149606l959.9981 0l0 325.1353c-479.99905 0 -479.99905 123.88251 -959.9981 53.49472z" fill-rule="evenodd"/><defs><linearGradient id="p.4" gradientUnits="userSpaceOnUse" gradientTransform="matrix(-17.384036482055855 0.0 0.0 -17.384036482055855 0.0 0.0)" spreadMethod="pad" x1="-10.782511285413415" y1="-10.699320351753412" x2="6.601525196642435" y2="-10.699320351753412"><stop offset="0.0" stop-color="#8fccff"/><stop offset="1.0" stop-color="#d9a0ff"/></linearGradient></defs><path fill="url(#p.4)" d="m187.44357 337.09973l0 0c0 83.45154 -67.65083 151.10236 -151.10237 151.10236l0 0c-40.074837 0 -78.508316 -15.919647 -106.845505 -44.256836c-28.337189 -28.337189 -44.25686 -66.77069 -44.25686 -106.84552l0 0c0 -83.45152 67.65083 -151.10236 151.10236 -151.10236l0 0c83.45154 0 151.10237 67.65083 151.10237 151.10236z" fill-rule="evenodd"/><defs><linearGradient id="p.5" gradientUnits="userSpaceOnUse" gradientTransform="matrix(-14.411281669930634 0.0 0.0 -14.411281669930634 0.0 0.0)" spreadMethod="pad" x1="-9.727360150528199" y1="0.7286762848642256" x2="4.683921519402438" y2="0.7286762848642256"><stop offset="0.0" stop-color="#8fccff"/><stop offset="1.0" stop-color="#d9a0ff"/></linearGradient></defs><path fill="url(#p.5)" d="m140.18373 93.34136l0 0c0 57.35064 -46.491882 103.84252 -103.84253 103.84252l0 0c-27.540747 0 -53.9535 -10.940521 -73.42775 -30.41478c-19.474247 -19.474243 -30.414768 -45.886993 -30.414768 -73.42774l0 0c0 -57.350643 46.491882 -103.84252 103.842514 -103.84252l0 0c57.350643 0 103.84253 46.49188 103.84253 103.84252z" fill-rule="evenodd"/><defs><linearGradient id="p.6" gradientUnits="userSpaceOnUse" gradientTransform="matrix(0.0 -15.418569436383093 15.418569436383093 0.0 0.0 0.0)" spreadMethod="pad" x1="-6.813202641267405" y1="20.045876592685005" x2="8.605366795115692" y2="20.045876592685005"><stop offset="0.0" stop-color="#8fccff"/><stop offset="1.0" stop-color="#d9a0ff"/></linearGradient></defs><path fill="url(#p.6)" d="m190.2126 105.04984l0 0c-65.64796 0 -118.86614 -53.21819 -118.86614 -118.86614l0 0c0 -31.52526 12.523361 -61.759327 34.815086 -84.051056c22.291718 -22.291725 52.525787 -34.815094 84.051056 -34.815094l0 0c65.64795 0 118.866135 53.218193 118.866135 118.86615l0 0c0 65.64796 -53.218185 118.86614 -118.866135 118.86614z" fill-rule="evenodd"/><path fill="#ffffff" d="m486.3305 -188.93329c204.63971 -31.081802 352.5257 168.27864 557.16534 137.19684l-45.499634 184.74622c-204.63971 31.081787 -352.52563 -168.27866 -557.16534 -137.19685z" fill-rule="evenodd"/></g></svg>