<svg version="1.1" viewBox="0.0 0.0 960.0 720.0" fill="none" stroke="none" stroke-linecap="square" stroke-miterlimit="10" xmlns:xlink="http://www.w3.org/1999/xlink" xmlns="http://www.w3.org/2000/svg"><clipPath id="p.0"><path d="m0 0l960.0 0l0 720.0l-960.0 0l0 -720.0z" clip-rule="nonzero"/></clipPath><g clip-path="url(#p.0)"><path fill="#000000" fill-opacity="0.0" d="m0 0l960.0 0l0 720.0l-960.0 0z" fill-rule="evenodd"/><defs><linearGradient id="p.1" gradientUnits="userSpaceOnUse" gradientTransform="matrix(26.725246604304672 0.0 0.0 26.725246604304672 0.0 0.0)" spreadMethod="pad" x1="5.56739582050305" y1="0.10773723523027492" x2="5.567299145570332" y2="26.83298383936009"><stop offset="0.0" stop-color="#f8a5c2"/><stop offset="1.0" stop-color="#ea8685"/></linearGradient></defs><path fill="url(#p.1)" d="m148.79002 360.0l0 0c0 -197.23088 159.88722 -357.1181 357.1181 -357.1181l0 0c94.71362 0 185.54797 37.624836 252.52063 104.59747c66.97266 66.97263 104.59747 157.807 104.59747 252.52063l0 0c0 197.2309 -159.8872 357.1181 -357.1181 357.1181l0 0c-197.2309 0 -357.1181 -159.8872 -357.1181 -357.1181z" fill-rule="evenodd"/><path fill="#000000" fill-opacity="0.0" d="m174.30183 256.33072l663.21265 0l0 207.33856l-663.21265 0z" fill-rule="evenodd"/><path fill="#ffffff" d="m252.78621 406.86508q-18.171875 0 -31.8125 -6.734375q-13.625 -6.75 -20.953125 -19.21875q-7.328125 -12.484375 -7.328125 -28.859375q0 -22.265625 8.46875 -39.671875q8.484375 -17.40625 23.140625 -27.046875q14.671875 -9.65625 32.593765 -9.65625q17.078125 0 26.1875 9.03125q9.125 9.03125 9.125 23.640625q0 9.765625 -3.8125 16.3125q-3.796875 6.53125 -11.40625 6.53125q-5.1875 0 -8.53125 -2.703125q-3.328125 -2.703125 -3.328125 -7.828125q0 -1.5625 0.640625 -5.390625q0.828125 -4.140625 0.828125 -6.484375q0 -10.296875 -11.17189 -10.296875q-8.703125 0 -16.765625 5.78125q-8.0625 5.78125 -13.203125 17.34375q-5.125 11.5625 -5.125 27.796875q0 16.3125 8.921875 25.046875q8.921875 8.71875 26.906265 8.71875q9.15625 0 18.609375 -2.34375q9.453125 -2.359375 21.140625 -7.25q2.765625 -1.125 4.828125 -1.125q3.984375 0 5.859375 2.828125q1.875 2.828125 1.875 6.53125q0 10.9375 -11.5 16.0q-10.71875 4.6875 -22.265625 6.875q-11.53125 2.171875 -21.92189 2.171875zm122.60622 -39.53125q3.59375 0 5.375 2.84375q1.78125 2.84375 1.78125 6.796875q0 7.015625 -3.546875 11.09375q-6.984375 8.0625 -14.640625 13.4375q-7.65625 5.359375 -17.71875 5.359375q-8.859375 0 -13.515625 -5.265625q-4.640625 -5.28125 -4.640625 -14.640625q0 -4.40625 2.125 -15.265625q1.84375 -8.953125 1.84375 -12.171875q1.4375 -0.734375 1.4375 0.703125q-0.34375 0 -3.328125 4.15625q-2.96875 4.140625 -6.375 11.953125q-3.40625 7.796875 -5.515625 16.46875q-3.359375 14.0625 -16.765625 14.0625q-6.375 0 -8.3125 -4.359375q-1.921875 -4.359375 -1.921875 -13.203125q0 -4.78125 0.15625 -7.59375l0.140625 -11.640625q0 -22.84375 4.6875 -47.703125q4.703125 -24.875 14.265625 -42.53125q9.5625 -17.65625 23.984375 -17.65625q8.3125 0 13.234375 6.828125q4.921875 6.828125 4.921875 17.046875q0 15.59375 -8.9375 32.015625q-8.921875 16.40625 -27.9375 37.15625q-0.375 6.453125 -1.90625 6.359375q0.640625 -5.90625 6.890625 -14.15625q6.25 -8.265625 12.65625 -12.0q6.40625 -3.734375 12.078125 -3.734375q12.578125 0 12.578125 12.578125q0 6.046875 -3.28125 21.328125q-2.734375 12.4375 -2.734375 16.21875q0 2.8125 1.21875 2.8125q1.765625 0 5.28125 -3.125q3.53125 -3.125 10.125 -11.046875q2.703125 -3.125 6.296875 -3.125zm-43.5625 -84.546875q-0.625 0 -3.40625 6.515625q-2.78125 6.5 -5.75 19.140625q-2.953125 12.625 -3.5625 17.40625q2.21875 -2.609375 7.921875 -14.71875q5.71875 -12.125 5.71875 -21.703125q0 -4.09375 -0.46875 -5.453125q-0.453125 -1.375 -0.453125 -1.1875zm53.824554 124.078125q-10.53125 0 -16.765625 -7.578125q-6.21875 -7.578125 -6.21875 -19.375q0 -12.46875 5.765625 -23.609375q5.765625 -11.15625 15.484375 -18.03125q9.71875 -6.875 20.796875 -6.875q4.609375 0 6.40625 2.0625q1.8125 2.0625 2.0625 3.171875q0.5 -0.09375 4.140625 -0.09375q10.234375 0 10.234375 8.171875q0 3.359375 -2.25 15.25q-3.3125 16.578125 -3.3125 22.890625q0 1.09375 0.28125 1.4375q0.28125 0.34375 0.625 0.34375q1.609375 0 5.046875 -3.109375q3.4531555 -3.125 10.0781555 -11.0625q2.703125 -3.125 6.28125 -3.125q3.59375 0 5.375 2.84375q1.78125 2.84375 1.78125 6.796875q0 7.015625 -3.484375 11.046875q-6.21875 7.734375 -13.515625 13.296875q-7.2969055 5.546875 -14.6406555 5.546875q-5.9375 0 -10.71875 -3.90625q-4.765625 -3.90625 -4.9375 -4.75q-5.21875 8.65625 -18.515625 8.65625zm5.28125 -20.90625q1.71875 0 3.984375 -2.9375q2.265625 -2.953125 3.4375 -8.5625l4.6875 -23.234375q-1.28125 0.03125 -5.796875 3.921875q-4.515625 3.875 -7.34375 10.59375q-2.8125 6.71875 -2.8125 14.3125q0 3.453125 1.015625 4.6875q1.03125 1.21875 2.828125 1.21875zm156.92847 -18.625q3.59375 0 5.359375 2.84375q1.78125 2.84375 1.78125 6.796875q0 7.015625 -3.484375 11.046875q-6.578125 8.109375 -14.640625 13.484375q-8.046875 5.359375 -18.640625 5.359375q-19.84375 0 -25.296875 -11.625q-1.1875 1.921875 -8.15625 6.78125q-6.953125 4.84375 -15.09375 4.84375q-15.703125 0 -22.875 -12.484375q-7.15625 -12.484375 -7.15625 -32.65625q0 -7.3125 0.46875 -12.9375l-2.703125 0q-5.703125 0 -8.125 -2.515625q-2.40625 -2.53125 -2.40625 -7.28125q0 -11.25 9.65625 -11.25l6.390625 0q2.375 -13.34375 7.53125 -26.359375q5.15625 -13.03125 12.84375 -21.203125q7.703125 -8.171875 17.21875 -8.171875q7.828125 0 12.03125 6.5q4.21875 6.5 4.21875 15.609375q0 21.953125 -11.671875 33.625l3.4375 0q2.375 -13.34375 7.53125 -26.359375q5.15625 -13.03125 12.84375 -21.203125q7.703125 -8.171875 17.21875 -8.171875q7.828125 0 12.03125 6.5q4.21875 6.5 4.21875 15.609375q0 21.953125 -11.671875 33.625l5.984375 0q3.59375 0 5.515625 1.921875q1.9375 1.90625 1.9375 5.953125q0 13.171875 -19.625 13.171875l-14.890625 0q-0.25 4.09375 -0.25 11.328125q0 14.421875 2.9375 19.46875q2.953125 5.046875 8.984375 5.046875q5.234375 0 9.546875 -3.390625q4.328125 -3.40625 10.71875 -10.796875q2.6875 -3.109375 6.28125 -3.109375zm-71.28125 -75.15625q-0.3125 0 -2.53125 4.5q-2.21875 4.5 -4.578125 14.015625q-2.359375 9.515625 -2.875 13.25q2.078125 -1.78125 6.109375 -10.484375q4.046875 -8.71875 4.046875 -15.671875q0 -5.609375 -0.171875 -5.609375zm45.609375 0q-0.3125 0 -2.53125 4.5q-2.21875 4.5 -4.578125 14.015625q-2.359375 9.515625 -2.875 13.25q2.078125 -1.78125 6.109375 -10.484375q4.046875 -8.71875 4.046875 -15.671875q0 -5.609375 -0.171875 -5.609375zm-49.421875 92.453125q3.1875 0 6.953125 -3.5q3.78125 -3.515625 6.15625 -8.171875q-0.609375 -3.796875 -0.609375 -11.234375q0 -7.3125 0.46875 -12.9375l-21.703125 0q-0.25 4.09375 -0.25 11.328125q0 14.09375 2.578125 19.3125q2.578125 5.203125 6.40625 5.203125zm132.7268 -17.296875q3.59375 0 5.359375 2.84375q1.78125 2.84375 1.78125 6.796875q0 7.015625 -3.5 11.0625q-5.75 7.015625 -16.25 12.921875q-10.5 5.90625 -22.59375 5.90625q-16.640625 0 -26.046875 -9.234375q-9.40625 -9.25 -9.40625 -25.046875q0 -10.828125 4.578125 -20.234375q4.578125 -9.40625 12.859375 -15.03125q8.28125 -5.625 18.75 -5.625q9.75 0 15.78125 5.953125q6.03125 5.9375 6.03125 15.875q0 11.375 -8.015625 19.375q-8.0 8.0 -22.28125 11.53125q0.90625 1.671875 9.359375 1.671875q5.828125 0 13.65625 -4.28125q7.828125 -4.296875 13.640625 -11.359375q2.703125 -3.125 6.296875 -3.125zm-36.96875 -15.171875q-3.6875 0 -6.78125 5.203125q-3.078125 5.203125 -3.078125 13.3125l-2.828125 0q7.046875 -4.5625 11.203125 -7.984375q4.15625 -3.4375 4.15625 -7.421875q0 -1.59375 -0.6875 -2.34375q-0.6875 -0.765625 -1.984375 -0.765625zm88.4328 -0.375q4.5 0 7.65625 3.171875q3.171875 3.15625 3.171875 7.796875q0 2.484375 -1.109375 5.28125q-2.65625 6.109375 -7.609375 10.375q-4.9375 4.25 -11.1875 4.25q-5.390625 0 -9.140625 -3.828125q-3.734375 -3.84375 -3.734375 -10.0625q0 -2.9375 0.296875 -6.34375q0.28125 -2.203125 0.28125 -2.90625q0 -0.03125 0.640625 -0.375q0.65625 -0.359375 0.65625 1.078125q-0.5 0 -3.46875 4.15625q-2.953125 4.140625 -6.375 11.953125q-3.40625 7.796875 -5.53125 16.453125q-1.78125 7.765625 -4.546875 10.921875q-2.765625 3.15625 -8.828125 3.15625q-7.671875 0 -10.421875 -7.109375q-2.75 -7.109375 -2.75 -20.578125q0 -19.53125 5.578125 -37.125q1.625 -5.28125 5.46875 -7.8125q3.84375 -2.546875 10.1875 -2.546875q3.8125 0 6.0625 1.421875q2.265625 1.40625 2.265625 5.140625q0 2.765625 -2.296875 11.328125q-1.453125 5.78125 -2.3125 10.0625q-0.84375 4.28125 -4.453125 10.296875q2.15625 -14.109375 8.484375 -22.4375q6.328125 -8.328125 12.65625 -12.0625q6.34375 -3.75 11.859375 -3.75q5.5625 0 8.703125 3.34375q3.140625 3.34375 3.140625 9.234375q0 3.109375 -3.34375 9.5l0 -1.984375zm20.536499 55.078125q-7.78125 0 -11.9375 -4.4375q-4.15625 -4.453125 -4.15625 -11.375q0 -7.796875 4.59375 -12.671875q4.609375 -4.890625 12.671875 -4.890625q7.671875 0 11.890625 4.03125q4.21875 4.03125 4.21875 11.484375q0 7.96875 -4.6875 12.921875q-4.671875 4.9375 -12.59375 4.9375zm45.31775 -78.75q-7.359375 0 -11.359375 -3.71875q-4.0 -3.71875 -4.0 -10.1875q0 -6.53125 4.984375 -10.796875q5.0 -4.28125 12.140625 -4.28125q6.46875 0 10.84375 3.421875q4.375 3.421875 4.375 9.75q0 7.234375 -4.75 11.53125q-4.75 4.28125 -12.234375 4.28125zm-1.171875 78.75q-11.203125 0 -16.21875 -7.828125q-5.015625 -7.828125 -5.015625 -19.859375q0 -6.84375 1.71875 -17.390625q1.734375 -10.5625 4.421875 -19.671875q1.5625 -5.625 4.5625 -8.015625q3.015625 -2.40625 8.921875 -2.40625q10.515625 0 10.515625 8.03125q0 3.984375 -2.84375 17.65625q-3.453125 15.8125 -3.453125 21.21875q0 3.671875 0.59375 4.859375q0.59375 1.171875 1.484375 1.171875q1.453125 0 4.890625 -3.1875q3.453125 -3.203125 9.953125 -10.984375q2.671875 -3.125 6.28125 -3.125q3.59375 0 5.375 2.84375q1.78125 2.84375 1.78125 6.796875q0 7.015625 -3.515625 11.0625q-15.40625 18.828125 -29.453125 18.828125zm42.827454 0q-9.625 0 -16.453125 -4.84375q-6.828125 -4.859375 -10.203125 -12.578125q-3.375 -7.71875 -3.375 -16.421875q0 -11.828125 4.5 -21.234375q4.515625 -9.40625 12.421875 -14.8125q7.921875 -5.421875 17.796875 -5.421875q9.625 0 16.515625 4.859375q6.90625 4.84375 10.28125 12.5625q3.390625 7.71875 3.390625 16.421875q0 11.84375 -4.59375 21.25q-4.59375 9.40625 -12.578125 14.8125q-7.96875 5.40625 -17.703125 5.40625zm1.609375 -21.9375q3.3125 0 6.0625 -4.34375q2.765625 -4.34375 2.765625 -13.875q0 -7.09375 -2.1875 -10.15625q-2.1875 -3.078125 -4.734375 -3.078125q-3.625 0 -6.375 4.28125q-2.75 4.28125 -2.75 13.9375q0 7.359375 2.171875 10.296875q2.171875 2.9375 5.046875 2.9375z" fill-rule="nonzero"/></g></svg>