<svg version="1.1" viewBox="0.0 0.0 955.1732283464567 562.1154855643044" fill="none" stroke="none" stroke-linecap="square" stroke-miterlimit="10" xmlns:xlink="http://www.w3.org/1999/xlink" xmlns="http://www.w3.org/2000/svg"><clipPath id="p.0"><path d="m0 0l955.1732 0l0 562.1155l-955.1732 0l0 -562.1155z" clip-rule="nonzero"/></clipPath><g clip-path="url(#p.0)"><path fill="#000000" fill-opacity="0.0" d="m0 0l955.1732 0l0 562.1155l-955.1732 0z" fill-rule="evenodd"/><defs><linearGradient id="p.1" gradientUnits="userSpaceOnUse" gradientTransform="matrix(19.806234870867303 0.0 0.0 19.806234870867303 0.0 0.0)" spreadMethod="pad" x1="0.02213041564090871" y1="-1.754594188740576E-4" x2="0.022058717580931676" y2="19.806059411318657"><stop offset="0.0" stop-color="#aff5ff"/><stop offset="0.3" stop-color="#d0f9ff"/><stop offset="1.0" stop-color="#ffffff"/></linearGradient></defs><path fill="url(#p.1)" d="m0.43832022 0l960.0 0l0 392.28348l-960.0 0z" fill-rule="evenodd"/><defs><linearGradient id="p.2" gradientUnits="userSpaceOnUse" gradientTransform="matrix(12.29175171106351 0.0 0.0 12.29175171106351 0.0 0.0)" spreadMethod="pad" x1="48.13632783468038" y1="2.3065190992235407" x2="48.13628446116491" y2="14.598270810210526"><stop offset="0.0" stop-color="#ffffff"/><stop offset="1.0" stop-color="#ffffff" stop-opacity="0.0"/></linearGradient></defs><path fill="url(#p.2)" d="m591.6798 103.89501l0 0c0 -41.721416 33.8219 -75.543304 75.543274 -75.543304l0 0c20.03534 0 39.25006 7.9590054 53.417175 22.126123c14.167114 14.167114 22.12616 33.38185 22.12616 53.417183l0 0c0 41.721413 -33.8219 75.54331 -75.543335 75.54331l0 0c-41.721375 0 -75.543274 -33.8219 -75.543274 -75.54331z" fill-rule="evenodd"/><defs><linearGradient id="p.3" gradientUnits="userSpaceOnUse" gradientTransform="matrix(12.291751815326771 0.0 0.0 12.291751815326771 0.0 0.0)" spreadMethod="pad" x1="55.31695298061726" y1="4.649809724953778" x2="55.31690960710216" y2="16.94156154020402"><stop offset="0.0" stop-color="#ffffff"/><stop offset="1.0" stop-color="#ffffff" stop-opacity="0.0"/></linearGradient></defs><path fill="url(#p.3)" d="m679.94226 132.69817l0 0c0 -41.72142 33.8219 -75.54331 75.543274 -75.54331l0 0c20.03534 0 39.250122 7.9590073 53.417236 22.126122c14.167114 14.167122 22.126099 33.38186 22.126099 53.41719l0 0c0 41.72142 -33.8219 75.543304 -75.543335 75.543304l0 0c-41.721375 0 -75.543274 -33.821884 -75.543274 -75.543304z" fill-rule="evenodd"/><defs><linearGradient id="p.4" gradientUnits="userSpaceOnUse" gradientTransform="matrix(11.326249420526784 0.0 0.0 11.326249420526784 0.0 0.0)" spreadMethod="pad" x1="44.85666207044577" y1="6.226871320632426" x2="44.856618620406316" y2="17.55312074107587"><stop offset="0.0" stop-color="#ffffff"/><stop offset="1.0" stop-color="#ffffff" stop-opacity="0.0"/></linearGradient></defs><path fill="url(#p.4)" d="m508.05774 134.6693l0 0c0 -35.424507 28.717224 -64.14174 64.14172 -64.14174l0 0c17.011475 0 33.32617 6.7577744 45.35504 18.786682c12.028931 12.028908 18.786682 28.343605 18.786682 45.355057l0 0c0 35.4245 -28.717224 64.14172 -64.14172 64.14172l0 0c-35.4245 0 -64.14172 -28.717224 -64.14172 -64.14172z" fill-rule="evenodd"/><defs><linearGradient id="p.5" gradientUnits="userSpaceOnUse" gradientTransform="matrix(9.484359426839273 0.0 0.0 9.484359426839273 0.0 0.0)" spreadMethod="pad" x1="47.6358239136362" y1="11.477628059636734" x2="47.635789321527795" y2="20.96198748641292"><stop offset="0.0" stop-color="#ffffff"/><stop offset="1.0" stop-color="#ffffff" stop-opacity="0.0"/></linearGradient></defs><path fill="url(#p.5)" d="m451.7953 153.83464l0 0c0 -24.839767 20.136597 -44.97637 44.97638 -44.97637l0 0c11.928467 0 23.368408 4.738571 31.8031 13.173279c8.434692 8.4347 13.173279 19.874626 13.173279 31.803093l0 0c0 24.839767 -20.136597 44.97638 -44.97638 44.97638l0 0c-24.839783 0 -44.97638 -20.136612 -44.97638 -44.97638z" fill-rule="evenodd"/><defs><linearGradient id="p.6" gradientUnits="userSpaceOnUse" gradientTransform="matrix(13.64109285463464 0.0 0.0 13.64109285463464 0.0 0.0)" spreadMethod="pad" x1="4.2079894488546845" y1="0.7957550799061678" x2="4.207940219154164" y2="14.436847934451976"><stop offset="0.0" stop-color="#ffffff"/><stop offset="1.0" stop-color="#ffffff" stop-opacity="0.0"/></linearGradient></defs><path fill="url(#p.6)" d="m57.401573 103.89501l0 0c0 -51.384224 41.655144 -93.03937 93.039375 -93.03937l0 0c24.675568 0 48.3405 9.802335 65.78877 27.250599c17.448257 17.448269 27.250595 41.113194 27.250595 65.78877l0 0c0 51.384224 -41.65515 93.039375 -93.03937 93.039375l0 0c-51.38423 0 -93.039375 -41.65515 -93.039375 -93.039375z" fill-rule="evenodd"/><defs><linearGradient id="p.7" gradientUnits="userSpaceOnUse" gradientTransform="matrix(11.932904866203797 0.0 0.0 11.932904866203797 0.0 0.0)" spreadMethod="pad" x1="15.069823623822403" y1="5.153882920209457" x2="15.069780664355338" y2="17.086787786335925"><stop offset="0.0" stop-color="#ffffff"/><stop offset="1.0" stop-color="#ffffff" stop-opacity="0.0"/></linearGradient></defs><path fill="url(#p.7)" d="m179.82677 132.69817l0 0c0 -39.32094 31.875916 -71.19685 71.19685 -71.19685l0 0c18.882568 0 36.99179 7.5010757 50.34378 20.853073c13.35199 13.351997 20.853058 31.461197 20.853058 50.34378l0 0c0 39.32094 -31.875916 71.19685 -71.19684 71.19685l0 0c-39.32094 0 -71.19685 -31.875916 -71.19685 -71.19685z" fill-rule="evenodd"/><defs><linearGradient id="p.8" gradientUnits="userSpaceOnUse" gradientTransform="matrix(10.779118550991344 0.0 0.0 10.779118550991344 0.0 0.0)" spreadMethod="pad" x1="0.04066382681480402" y1="7.103955896741881" x2="0.04062480340535134" y2="17.883074447662587"><stop offset="0.0" stop-color="#ffffff"/><stop offset="1.0" stop-color="#ffffff" stop-opacity="0.0"/></linearGradient></defs><path fill="url(#p.8)" d="m0.43832022 134.6693l0 0c0 -32.0847 26.009789 -58.09449 58.09449 -58.09449l0 0c15.407612 0 30.184177 6.1206512 41.079006 17.01548c10.894829 10.894829 17.01548 25.671387 17.01548 41.07901l0 0c0 32.0847 -26.009789 58.094482 -58.094486 58.094482l0 0c-32.0847 0 -58.09449 -26.00978 -58.09449 -58.094482z" fill-rule="evenodd"/><defs><linearGradient id="p.9" gradientUnits="userSpaceOnUse" gradientTransform="matrix(12.611728361262491 0.0 0.0 12.611728361262491 0.0 0.0)" spreadMethod="pad" x1="5.6228126546544885" y1="7.787772683379872" x2="5.622766723337434" y2="20.399501044558722"><stop offset="0.0" stop-color="#ffffff"/><stop offset="1.0" stop-color="#ffffff" stop-opacity="0.0"/></linearGradient></defs><path fill="url(#p.9)" d="m70.91338 177.7454l0 0c0 -43.92186 35.605705 -79.52756 79.527565 -79.52756l0 0c21.09201 0 41.32016 8.378769 56.234467 23.293083c14.914322 14.914314 23.29309 35.14245 23.29309 56.234474l0 0c0 43.92186 -35.605698 79.52757 -79.52756 79.52757l0 0c-43.92186 0 -79.527565 -35.605713 -79.527565 -79.52757z" fill-rule="evenodd"/><defs><linearGradient id="p.10" gradientUnits="userSpaceOnUse" gradientTransform="matrix(9.48435996734095 0.0 0.0 9.48435996734095 0.0 0.0)" spreadMethod="pad" x1="23.58074711771584" y1="11.477626324537903" x2="23.5807125256094" y2="20.96198629181577"><stop offset="0.0" stop-color="#ffffff"/><stop offset="1.0" stop-color="#ffffff" stop-opacity="0.0"/></linearGradient></defs><path fill="url(#p.10)" d="m223.6483 153.83464l0 0c0 -24.839767 20.136597 -44.97637 44.976364 -44.97637l0 0c11.928497 0 23.368408 4.738571 31.8031 13.173279c8.434723 8.4347 13.173279 19.874626 13.173279 31.803093l0 0c0 24.839767 -20.136597 44.97638 -44.97638 44.97638l0 0c-24.839767 0 -44.976364 -20.136612 -44.976364 -44.97638z" fill-rule="evenodd"/><defs><linearGradient id="p.11" gradientUnits="userSpaceOnUse" gradientTransform="matrix(9.48435996734095 0.0 0.0 9.48435996734095 0.0 0.0)" spreadMethod="pad" x1="29.700782589001907" y1="9.456893834764859" x2="29.70074799689547" y2="18.941253802042727"><stop offset="0.0" stop-color="#ffffff"/><stop offset="1.0" stop-color="#ffffff" stop-opacity="0.0"/></linearGradient></defs><path fill="url(#p.11)" d="m281.6929 134.6693l0 0c0 -24.839775 20.136627 -44.97638 44.97638 -44.97638l0 0c11.928497 0 23.368408 4.7385635 31.8031 13.173271c8.434723 8.434708 13.173279 19.874626 13.173279 31.803108l0 0c0 24.839767 -20.136597 44.97638 -44.97638 44.97638l0 0c-24.839752 0 -44.97638 -20.136612 -44.97638 -44.97638z" fill-rule="evenodd"/><defs><linearGradient id="p.12" gradientUnits="userSpaceOnUse" gradientTransform="matrix(9.48435996734095 0.0 0.0 9.48435996734095 0.0 0.0)" spreadMethod="pad" x1="55.588684837810305" y1="13.99869904185267" x2="55.58865024570387" y2="23.483059009130535"><stop offset="0.0" stop-color="#ffffff"/><stop offset="1.0" stop-color="#ffffff" stop-opacity="0.0"/></linearGradient></defs><path fill="url(#p.12)" d="m527.2231 177.7454l0 0c0 -24.839767 20.136597 -44.97638 44.97638 -44.97638l0 0c11.928467 0 23.368408 4.738571 31.8031 13.173279c8.434692 8.434708 13.173279 19.874619 13.173279 31.8031l0 0c0 24.839767 -20.136597 44.97638 -44.97638 44.97638l0 0c-24.839783 0 -44.97638 -20.136612 -44.97638 -44.97638z" fill-rule="evenodd"/><defs><linearGradient id="p.13" gradientUnits="userSpaceOnUse" gradientTransform="matrix(9.484359426839273 0.0 0.0 9.484359426839273 0.0 0.0)" spreadMethod="pad" x1="65.57086354566037" y1="13.998700920624254" x2="65.57082895355197" y2="23.48306034740044"><stop offset="0.0" stop-color="#ffffff"/><stop offset="1.0" stop-color="#ffffff" stop-opacity="0.0"/></linearGradient></defs><path fill="url(#p.13)" d="m621.89764 177.7454l0 0c0 -24.839767 20.136597 -44.97638 44.97638 -44.97638l0 0c11.928467 0 23.368408 4.738571 31.8031 13.173279c8.434692 8.434708 13.173279 19.874619 13.173279 31.8031l0 0c0 24.839767 -20.136597 44.97638 -44.97638 44.97638l0 0c-24.839783 0 -44.97638 -20.136612 -44.97638 -44.97638z" fill-rule="evenodd"/><defs><linearGradient id="p.14" gradientUnits="userSpaceOnUse" gradientTransform="matrix(9.484359426839273 0.0 0.0 9.484359426839273 0.0 0.0)" spreadMethod="pad" x1="93.0494507829552" y1="9.249066067371915" x2="93.04941619084678" y2="18.7334254941481"><stop offset="0.0" stop-color="#ffffff"/><stop offset="1.0" stop-color="#ffffff" stop-opacity="0.0"/></linearGradient></defs><path fill="url(#p.14)" d="m882.51447 132.69817l0 0c0 -24.839767 20.136597 -44.97638 44.97632 -44.97638l0 0c11.928528 0 23.368408 4.7385635 31.803162 13.173271c8.434692 8.434708 13.173218 19.874626 13.173218 31.803108l0 0c0 24.839767 -20.136597 44.97638 -44.97638 44.97638l0 0c-24.839722 0 -44.97632 -20.136612 -44.97632 -44.97638z" fill-rule="evenodd"/><defs><linearGradient id="p.15" gradientUnits="userSpaceOnUse" gradientTransform="matrix(12.611728361261754 0.0 0.0 12.611728361261754 0.0 0.0)" spreadMethod="pad" x1="62.18829131139602" y1="3.152250843503898" x2="62.1882457865508" y2="15.763979204683485"><stop offset="0.0" stop-color="#ffffff"/><stop offset="1.0" stop-color="#ffffff" stop-opacity="0.0"/></linearGradient></defs><path fill="url(#p.15)" d="m784.3018 119.28346l0 0c0 -43.92186 35.605713 -79.52756 79.52759 -79.52756l0 0c21.09198 0 41.32013 8.378773 56.234436 23.293083c14.914368 14.914307 23.29309 35.142456 23.29309 56.234474l0 0c0 43.92186 -35.60565 79.52756 -79.52753 79.52756l0 0c-43.921875 0 -79.52759 -35.605698 -79.52759 -79.52756z" fill-rule="evenodd"/><defs><linearGradient id="p.16" gradientUnits="userSpaceOnUse" gradientTransform="matrix(11.326249873131353 0.0 0.0 11.326249873131353 0.0 0.0)" spreadMethod="pad" x1="70.6048050325157" y1="10.030080935212476" x2="70.60476158247798" y2="21.356330808260488"><stop offset="0.0" stop-color="#ffffff"/><stop offset="1.0" stop-color="#ffffff" stop-opacity="0.0"/></linearGradient></defs><path fill="url(#p.16)" d="m799.6877 177.7454l0 0c0 -35.4245 28.717224 -64.14173 64.14172 -64.14173l0 0c17.011414 0 33.32611 6.7577667 45.35504 18.786674c12.028931 12.028915 18.786682 28.343613 18.786682 45.355057l0 0c0 35.4245 -28.717224 64.14174 -64.14172 64.14174l0 0c-35.4245 0 -64.14172 -28.71724 -64.14172 -64.14174z" fill-rule="evenodd"/><path fill="#ffffff" fill-opacity="0.581" d="m155.01312 308.95407l0 0c0 -35.4245 28.71724 -64.14174 64.14174 -64.14174l0 0c17.011444 0 33.32614 6.7577667 45.355057 18.786697c12.0289 12.0289 18.786682 28.343597 18.786682 45.35504l0 0c0 35.4245 -28.71724 64.14172 -64.14174 64.14172l0 0c-35.4245 0 -64.14174 -28.717224 -64.14174 -64.14172z" fill-rule="evenodd"/><path fill="#ffffff" fill-opacity="0.581" d="m249.49606 324.7362l0 0c0 -20.082275 16.279907 -36.362183 36.362213 -36.362183l0 0c9.64386 0 18.89273 3.8309937 25.711945 10.650238c6.8192444 6.8192444 10.650238 16.068115 10.650238 25.711945l0 0c0 20.082306 -16.279907 36.362213 -36.362183 36.362213l0 0c-20.082306 0 -36.362213 -16.279907 -36.362213 -36.362213z" fill-rule="evenodd"/><path fill="#ffffff" fill-opacity="0.581" d="m111.65354 257.53937l0 0c0 -20.08229 16.279915 -36.362198 36.362206 -36.362198l0 0c9.64386 0 18.89273 3.831009 25.71196 10.650238c6.8192444 6.8192444 10.650253 16.0681 10.650253 25.71196l0 0c0 20.082306 -16.279922 36.362213 -36.362213 36.362213l0 0c-20.08229 0 -36.362206 -16.279907 -36.362206 -36.362213z" fill-rule="evenodd"/><path fill="#ffffff" fill-opacity="0.581" d="m71.0105 301.8622l0 0c0 -24.839783 20.136612 -44.97638 44.97638 -44.97638l0 0c11.928474 0 23.368393 4.738556 31.8031 13.173279c8.434708 8.434692 13.173279 19.874603 13.173279 31.8031l0 0c0 24.839752 -20.136612 44.97638 -44.97638 44.97638l0 0c-24.839767 0 -44.97638 -20.136627 -44.97638 -44.97638z" fill-rule="evenodd"/><path fill="#ffffff" fill-opacity="0.581" d="m6.461942 324.7362l0 0c0 -24.839752 20.13661 -44.97635 44.97638 -44.97635l0 0c11.928478 0 23.368397 4.738556 31.803104 13.173248c8.434708 8.434723 13.173271 19.874634 13.173271 31.8031l0 0c0 24.839783 -20.136604 44.97638 -44.976376 44.97638l0 0c-24.839767 0 -44.97638 -20.136597 -44.97638 -44.97638z" fill-rule="evenodd"/><path fill="#ffffff" fill-opacity="0.581" d="m92.73753 324.7362l0 0c0 -24.839752 20.136612 -44.97635 44.97638 -44.97635l0 0c11.928482 0 23.368393 4.738556 31.8031 13.173248c8.434708 8.434723 13.173279 19.874634 13.173279 31.8031l0 0c0 24.839783 -20.136612 44.97638 -44.97638 44.97638l0 0c-24.839767 0 -44.97638 -20.136597 -44.97638 -44.97638z" fill-rule="evenodd"/><defs><linearGradient id="p.17" gradientUnits="userSpaceOnUse" gradientTransform="matrix(16.291661212640097 0.0 0.0 16.291661212640097 0.0 0.0)" spreadMethod="pad" x1="48.14130536067314" y1="12.416969539402794" x2="48.14124494620983" y2="28.708630751930873"><stop offset="0.0" stop-color="#33ec8b"/><stop offset="1.0" stop-color="#73eaff"/></linearGradient></defs><path fill="url(#p.17)" d="m784.3018 335.00262l0 0c0 -73.29297 55.707092 -132.70866 124.42523 -132.70866l0 0c32.999573 0 64.647644 13.981766 87.98187 38.869476c23.33429 24.88768 36.4433 58.642654 36.4433 93.83919l0 0c0 73.29297 -55.70703 132.70865 -124.42517 132.70865l0 0c-68.71814 0 -124.42523 -59.41568 -124.42523 -132.70865z" fill-rule="evenodd"/><defs><linearGradient id="p.18" gradientUnits="userSpaceOnUse" gradientTransform="matrix(16.291660583318187 0.0 0.0 16.291660583318187 0.0 0.0)" spreadMethod="pad" x1="38.60871006876139" y1="13.821003459123268" x2="38.608652171565154" y2="30.11266404233858"><stop offset="0.0" stop-color="#33ec8b"/><stop offset="1.0" stop-color="#73eaff"/></linearGradient></defs><path fill="url(#p.18)" d="m629.0 357.87665l0 0c0 -73.29297 53.958496 -132.70866 120.519714 -132.70866l0 0c31.963806 0 62.61841 13.981766 85.220276 38.86946c22.601807 24.887695 35.299377 58.64267 35.299377 93.8392l0 0c0 73.29297 -53.958496 132.70865 -120.51965 132.70865l0 0c-66.56122 0 -120.519714 -59.41568 -120.519714 -132.70865z" fill-rule="evenodd"/><defs><linearGradient id="p.19" gradientUnits="userSpaceOnUse" gradientTransform="matrix(16.29165303150823 0.0 0.0 16.29165303150823 0.0 0.0)" spreadMethod="pad" x1="31.96294990392115" y1="15.694518693509773" x2="31.962892006698077" y2="31.986171724915128"><stop offset="0.0" stop-color="#33ec8b"/><stop offset="1.0" stop-color="#73eaff"/></linearGradient></defs><path fill="url(#p.19)" d="m520.7293 388.39896l0 0c0 -73.29297 39.82196 -132.70866 88.944885 -132.70866l0 0c23.58966 0 46.213135 13.981766 62.893555 38.86946c16.680359 24.887695 26.05133 58.64267 26.05133 93.8392l0 0c0 73.29297 -39.82196 132.70865 -88.944885 132.70865l0 0c-49.122925 0 -88.944885 -59.41568 -88.944885 -132.70865z" fill-rule="evenodd"/><defs><linearGradient id="p.20" gradientUnits="userSpaceOnUse" gradientTransform="matrix(13.268893916555035 0.0 0.0 13.268893916555035 0.0 0.0)" spreadMethod="pad" x1="31.524601112728647" y1="21.980797006539447" x2="31.52455475185756" y2="35.24969092301349"><stop offset="0.0" stop-color="#33ec8b"/><stop offset="1.0" stop-color="#73eaff"/></linearGradient></defs><path fill="url(#p.20)" d="m418.2966 379.6929l0 0c0 -48.61844 33.82187 -88.031494 75.543304 -88.031494l0 0c20.03534 0 39.25006 9.274719 53.417175 25.783844c14.167114 16.509094 22.126099 38.90027 22.126099 62.24765l0 0c0 48.61847 -33.82184 88.031494 -75.543274 88.031494l0 0c-41.721436 0 -75.543304 -39.413025 -75.543304 -88.031494z" fill-rule="evenodd"/><defs><linearGradient id="p.21" gradientUnits="userSpaceOnUse" gradientTransform="matrix(14.864748667703367 0.0 0.0 14.864748667703367 0.0 0.0)" spreadMethod="pad" x1="51.81647280844072" y1="16.09908760825952" x2="51.81642314806685" y2="30.96383627587993"><stop offset="0.0" stop-color="#28b86c"/><stop offset="1.0" stop-color="#32b2c9"/></linearGradient></defs><path fill="url(#p.21)" d="m770.23883 349.78967l0 0c0 -61.016388 50.616516 -110.479965 113.055115 -110.479965l0 0c29.98407 0 58.740112 11.639816 79.94208 32.35884c21.201904 20.718994 33.113037 48.820007 33.113037 78.121124l0 0c0 61.016388 -50.616455 110.47995 -113.055115 110.47995l0 0c-62.4386 0 -113.055115 -49.463562 -113.055115 -110.47995z" fill-rule="evenodd"/><defs><linearGradient id="p.22" gradientUnits="userSpaceOnUse" gradientTransform="matrix(14.864749357435501 0.0 0.0 14.864749357435501 0.0 0.0)" spreadMethod="pad" x1="41.368811076953534" y1="17.38011890898682" x2="41.36875865767244" y2="32.244868266329895"><stop offset="0.0" stop-color="#28b86c"/><stop offset="1.0" stop-color="#32b2c9"/></linearGradient></defs><path fill="url(#p.22)" d="m614.937 368.83194l0 0c0 -61.016388 53.958496 -110.47995 120.51965 -110.47995l0 0c66.56122 0 120.519714 49.463562 120.519714 110.47995l0 0c0 61.016388 -53.958496 110.47995 -120.519714 110.47995l0 0c-66.56116 0 -120.51965 -49.463562 -120.51965 -110.47995z" fill-rule="evenodd"/><defs><linearGradient id="p.23" gradientUnits="userSpaceOnUse" gradientTransform="matrix(14.864743149892751 0.0 0.0 14.864743149892751 0.0 0.0)" spreadMethod="pad" x1="34.085105505932184" y1="19.089543088249755" x2="34.08505032771851" y2="33.9542862380401"><stop offset="0.0" stop-color="#28b86c"/><stop offset="1.0" stop-color="#32b2c9"/></linearGradient></defs><path fill="url(#p.23)" d="m506.66632 394.24176l0 0c0 -61.016388 39.82196 -110.47995 88.944885 -110.47995l0 0c23.58966 0 46.213135 11.639801 62.893555 32.358826c16.680359 20.718994 26.05133 48.820007 26.05133 78.121124l0 0c0 61.016388 -39.82196 110.47995 -88.944885 110.47995l0 0c-49.122925 0 -88.944885 -49.463562 -88.944885 -110.47995z" fill-rule="evenodd"/><defs><linearGradient id="p.24" gradientUnits="userSpaceOnUse" gradientTransform="matrix(12.291582699165911 0.0 0.0 12.291582699165911 0.0 0.0)" spreadMethod="pad" x1="30.70641555540586" y1="25.15383191496629" x2="30.706368844823857" y2="37.44541461404345"><stop offset="0.0" stop-color="#28b86c"/><stop offset="1.0" stop-color="#32b2c9"/></linearGradient></defs><path fill="url(#p.24)" d="m377.43045 384.72223l0 0c0 -41.720245 39.82199 -75.5412 88.944885 -75.5412l0 0c49.122894 0 88.944855 33.820953 88.944855 75.5412l0 0c0 41.720245 -39.82196 75.54117 -88.944855 75.54117l0 0c-49.122894 0 -88.944885 -33.820923 -88.944885 -75.54117z" fill-rule="evenodd"/><defs><linearGradient id="p.25" gradientUnits="userSpaceOnUse" gradientTransform="matrix(12.10636861019947 0.0 0.0 12.10636861019947 0.0 0.0)" spreadMethod="pad" x1="68.14276656306446" y1="22.157381454865234" x2="68.14272591289098" y2="34.26375006499646"><stop offset="0.0" stop-color="#41d386"/><stop offset="1.0" stop-color="#32b2c9"/></linearGradient></defs><path fill="url(#p.25)" d="m824.9614 341.52786l0 0c0 -40.47238 44.912598 -73.28174 100.31506 -73.28174l0 0c55.402466 0 100.31506 32.809357 100.31506 73.28174l0 0c0 40.47238 -44.912598 73.28171 -100.31506 73.28171l0 0c-55.402466 0 -100.31506 -32.809326 -100.31506 -73.28171z" fill-rule="evenodd"/><defs><linearGradient id="p.26" gradientUnits="userSpaceOnUse" gradientTransform="matrix(12.106377925866568 0.0 0.0 12.106377925866568 0.0 0.0)" spreadMethod="pad" x1="54.311452430967826" y1="23.200682486116563" x2="54.311408393313776" y2="35.30706041190304"><stop offset="0.0" stop-color="#41d386"/><stop offset="1.0" stop-color="#32b2c9"/></linearGradient></defs><path fill="url(#p.26)" d="m657.515 354.1589l0 0c0 -40.47238 58.17804 -73.28174 129.94427 -73.28174l0 0c71.7663 0 129.94434 32.809357 129.94434 73.28174l0 0c0 40.47235 -58.17804 73.28171 -129.94434 73.28171l0 0c-71.766235 0 -129.94427 -32.809357 -129.94427 -73.28171z" fill-rule="evenodd"/><defs><linearGradient id="p.27" gradientUnits="userSpaceOnUse" gradientTransform="matrix(12.106367763326752 0.0 0.0 12.106367763326752 0.0 0.0)" spreadMethod="pad" x1="44.6688527580725" y1="24.59291630058635" x2="44.66880872038148" y2="36.699284063833005"><stop offset="0.0" stop-color="#41d386"/><stop offset="1.0" stop-color="#32b2c9"/></linearGradient></defs><path fill="url(#p.27)" d="m540.7775 371.0133l0 0c0 -40.47238 42.936096 -73.28171 95.90039 -73.28171l0 0c52.964294 0 95.90033 32.809326 95.90033 73.28171l0 0c0 40.47238 -42.936035 73.28174 -95.90033 73.28174l0 0c-52.964294 0 -95.90039 -32.809357 -95.90039 -73.28174z" fill-rule="evenodd"/><defs><linearGradient id="p.28" gradientUnits="userSpaceOnUse" gradientTransform="matrix(10.473433575496944 0.0 0.0 10.473433575496944 0.0 0.0)" spreadMethod="pad" x1="38.32892103347489" y1="29.132308790394294" x2="38.32888187678535" y2="39.60574236581804"><stop offset="0.0" stop-color="#41d386"/><stop offset="1.0" stop-color="#32b2c9"/></linearGradient></defs><path fill="url(#p.28)" d="m401.43542 359.96207l0 0c0 -30.29065 42.936035 -54.84607 95.90036 -54.84607l0 0c52.964325 0 95.90036 24.55542 95.90036 54.84607l0 0c0 30.29065 -42.936035 54.84607 -95.90036 54.84607l0 0c-52.964325 0 -95.90036 -24.55542 -95.90036 -54.84607z" fill-rule="evenodd"/><path fill="#7bc1ff" d="m960.43567 571.1234l-959.9981 0l0 -194.92477c479.99905 0 479.99905 -74.26993 959.9981 -32.071106z" fill-rule="evenodd"/><path fill="#3c78d8" fill-opacity="0.4078" d="m960.4383 571.12335l-959.9981 0l0 -162.87225c479.99905 0 479.99905 -62.057312 959.9981 -26.797485z" fill-rule="evenodd"/><path fill="#79f0ff" fill-opacity="0.7765" d="m0.44094488 571.9265l959.1194 0l0 -155.52975c-479.55966 0 -479.55966 -59.259674 -959.1194 -25.589386z" fill-rule="evenodd"/><path fill="#aff0ff" d="m959.5617 571.12335l-959.5616 0l0 -134.86609c479.7808 0 479.7808 -51.386444 959.5616 -22.189606z" fill-rule="evenodd"/><path fill="#38e3fc" d="m959.78217 580.3202l-959.5616 0l0 -129.41034c479.7808 0 479.7808 -49.30774 959.5616 -21.291992z" fill-rule="evenodd"/><path fill="#79f0ff" fill-opacity="0.7765" d="m0.22309712 575.0521l959.1194 0l0 -111.67462c-479.5597 0 -479.5597 -42.55008 -959.1194 -18.373901z" fill-rule="evenodd"/><path fill="#38e3fc" d="m960.22046 586.0131l-959.5616 0l0 -98.339874c479.7808 0 479.7808 -37.46927 959.5616 -16.179901z" fill-rule="evenodd"/><path fill="#79f0ff" fill-opacity="0.7765" d="m0.22309712 580.2047l959.1194 0l0 -44.255188c-479.5597 0 -479.5597 -16.86206 -959.1194 -7.281372z" fill-rule="evenodd"/><path fill="#ffffff" d="m416.17847 445.6509l-26.484406 40.75592l-297.07843 0l-26.484413 -40.75592z" fill-rule="evenodd"/><path fill="#d9ead3" d="m409.0514 457.47244l-7.6956177 11.842529l-319.6324 0l-7.6956253 -11.842529z" fill-rule="evenodd"/><path fill="#666666" d="m243.48032 235.9125l2.6456757 0l0 211.24408l-2.6456757 0z" fill-rule="evenodd"/><defs><linearGradient id="p.29" gradientUnits="userSpaceOnUse" gradientTransform="matrix(14.21653244446085 0.0 0.0 14.21653244446085 0.0 0.0)" spreadMethod="pad" x1="21.366549423842713" y1="14.356320231602247" x2="11.313887757578906" y2="24.408871557909322"><stop offset="0.0" stop-color="#ff9014"/><stop offset="1.0" stop-color="#ffd966"/></linearGradient></defs><path fill="url(#p.29)" d="m248.87576 435.042l0 -176.06299l109.76376 176.06299z" fill-rule="evenodd"/><defs><linearGradient id="p.30" gradientUnits="userSpaceOnUse" gradientTransform="matrix(-12.611714541211885 0.0 0.0 12.611714541211885 0.0 0.0)" spreadMethod="pad" x1="-19.096939085477597" y1="22.16951343558754" x2="-19.096984610372704" y2="34.781227976717254"><stop offset="0.0" stop-color="#ffdb2a"/><stop offset="1.0" stop-color="#41d386"/></linearGradient></defs><path fill="url(#p.30)" d="m240.84514 438.6509l0 -159.05511l-61.007874 159.05511z" fill-rule="evenodd"/><defs><linearGradient id="p.31" gradientUnits="userSpaceOnUse" gradientTransform="matrix(-7.952759965969565 0.0 0.0 7.952759965969565 0.0 0.0)" spreadMethod="pad" x1="-120.7679251379092" y1="38.54061563575632" x2="-120.76794576496138" y2="46.493375601699135"><stop offset="0.0" stop-color="#41d386"/><stop offset="1.0" stop-color="#ffd966"/></linearGradient></defs><path fill="url(#p.31)" d="m960.4383 369.75067l0 -63.24411l-631.622 63.24411z" fill-rule="evenodd"/><path fill="#69bb45" d="m587.35956 358.32285l5.4803467 -38.11026l5.4802856 38.11026z" fill-rule="evenodd"/><path fill="#69bb45" d="m598.3202 360.54855l5.4803467 -38.11023l5.4802856 38.11023z" fill-rule="evenodd"/><path fill="#69bb45" d="m618.46063 358.32285l5.4802856 -38.11026l5.4803467 38.11026z" fill-rule="evenodd"/><path fill="#69bb45" d="m645.38715 358.32285l5.4802856 -38.11026l5.4803467 38.11026z" fill-rule="evenodd"/><path fill="#69bb45" d="m672.31494 357.20996l5.4803467 -38.11023l5.4802856 38.11023z" fill-rule="evenodd"/><path fill="#69bb45" d="m683.2756 359.4357l5.4803467 -38.11023l5.4802856 38.11023z" fill-rule="evenodd"/><path fill="#69bb45" d="m703.416 357.20996l5.4802856 -38.11023l5.4803467 38.11023z" fill-rule="evenodd"/><path fill="#69bb45" d="m730.3425 357.20996l5.4802856 -38.11023l5.4803467 38.11023z" fill-rule="evenodd"/><path fill="#69bb45" d="m573.8963 366.85565l5.4803467 -38.11026l5.4802856 38.11026z" fill-rule="evenodd"/><path fill="#69bb45" d="m584.85693 369.08136l5.4803467 -38.11023l5.4802856 38.11023z" fill-rule="evenodd"/><path fill="#69bb45" d="m604.9974 366.85565l5.4802856 -38.11026l5.4803467 38.11026z" fill-rule="evenodd"/><path fill="#69bb45" d="m631.9239 366.85565l5.4802856 -38.11026l5.4803467 38.11026z" fill-rule="evenodd"/><path fill="#69bb45" d="m658.8517 365.74277l5.4803467 -38.11023l5.4802856 38.11023z" fill-rule="evenodd"/><path fill="#69bb45" d="m669.8123 367.9685l5.4803467 -38.11023l5.4802856 38.11023z" fill-rule="evenodd"/><path fill="#69bb45" d="m689.95276 365.74277l5.4802856 -38.11023l5.4803467 38.11023z" fill-rule="evenodd"/><path fill="#69bb45" d="m716.8793 365.74277l5.4802856 -38.11023l5.4803467 38.11023z" fill-rule="evenodd"/><path fill="#69bb45" d="m757.2677 355.7257l5.4803467 -38.11023l5.4802856 38.11023z" fill-rule="evenodd"/><path fill="#69bb45" d="m768.22833 357.95145l5.4803467 -38.11023l5.4802856 38.11023z" fill-rule="evenodd"/><path fill="#69bb45" d="m788.3688 355.7257l5.4802856 -38.11023l5.4803467 38.11023z" fill-rule="evenodd"/><path fill="#69bb45" d="m815.2953 355.7257l5.4802856 -38.11023l5.4803467 38.11023z" fill-rule="evenodd"/><path fill="#69bb45" d="m842.2231 354.61285l5.4803467 -38.11023l5.4802856 38.11023z" fill-rule="evenodd"/><path fill="#69bb45" d="m853.1837 356.8386l5.4803467 -38.11026l5.4802856 38.11026z" fill-rule="evenodd"/><path fill="#69bb45" d="m873.32416 354.61285l5.4802856 -38.11023l5.4803467 38.11023z" fill-rule="evenodd"/><path fill="#69bb45" d="m900.2507 354.61285l5.4802856 -38.11023l5.4803467 38.11023z" fill-rule="evenodd"/><path fill="#69bb45" d="m743.80444 364.25854l5.4803467 -38.11026l5.4802856 38.11026z" fill-rule="evenodd"/><path fill="#69bb45" d="m754.7651 366.48425l5.4803467 -38.11023l5.4802856 38.11023z" fill-rule="evenodd"/><path fill="#69bb45" d="m774.9055 364.25854l5.4802856 -38.11026l5.4803467 38.11026z" fill-rule="evenodd"/><path fill="#69bb45" d="m801.83203 364.25854l5.4802856 -38.11026l5.4803467 38.11026z" fill-rule="evenodd"/><path fill="#69bb45" d="m828.7598 363.14566l5.4803467 -38.11023l5.4802856 38.11023z" fill-rule="evenodd"/><path fill="#69bb45" d="m839.72046 365.3714l5.4803467 -38.11023l5.4802856 38.11023z" fill-rule="evenodd"/><path fill="#69bb45" d="m859.8609 363.14566l5.4802856 -38.11023l5.4803467 38.11023z" fill-rule="evenodd"/><path fill="#69bb45" d="m886.7874 363.14566l5.4802856 -38.11023l5.4803467 38.11023z" fill-rule="evenodd"/><defs><linearGradient id="p.32" gradientUnits="userSpaceOnUse" gradientTransform="matrix(-4.433247888842704 0.0 0.0 4.433247888842704 0.0 0.0)" spreadMethod="pad" x1="-54.32701946649499" y1="53.470338348622896" x2="-54.327033342495056" y2="57.90358623744388"><stop offset="0.0" stop-color="#ffdb2a"/><stop offset="1.0" stop-color="#ea9999"/></linearGradient></defs><path fill="url(#p.32)" d="m240.84514 256.70096l0 -19.653534l-40.913376 19.653534z" fill-rule="evenodd"/><path fill="#ffffff" d="m816.47284 314.90067l0 0c0 1.7851257 5.887268 3.2322693 13.149597 3.2322693c7.262329 0 13.149658 -1.4471436 13.149658 -3.2322693l0 19.393707c0 1.7851257 -5.887329 3.2322693 -13.149658 3.2322693c-7.262329 0 -13.149597 -1.4471436 -13.149597 -3.2322693z" fill-rule="evenodd"/><path fill="#ffffff" d="m816.47284 314.90067l0 0c0 -1.7851562 5.887268 -3.2322998 13.149597 -3.2322998c7.262329 0 13.149658 1.4471436 13.149658 3.2322998l0 0c0 1.7851257 -5.887329 3.2322693 -13.149658 3.2322693c-7.262329 0 -13.149597 -1.4471436 -13.149597 -3.2322693z" fill-rule="evenodd"/><path fill="#000000" fill-opacity="0.0" d="m842.7721 314.90067l0 0c0 1.7851257 -5.887329 3.2322693 -13.149658 3.2322693c-7.262329 0 -13.149597 -1.4471436 -13.149597 -3.2322693l0 0c0 -1.7851562 5.887268 -3.2322998 13.149597 -3.2322998c7.262329 0 13.149658 1.4471436 13.149658 3.2322998l0 19.393707c0 1.7851257 -5.887329 3.2322693 -13.149658 3.2322693c-7.262329 0 -13.149597 -1.4471436 -13.149597 -3.2322693l0 -19.393707" fill-rule="evenodd"/><path fill="#f4cccc" d="m816.47284 295.6632l0 0c0 1.7861023 5.889099 3.2340088 13.153687 3.2340088c7.2645874 0 13.153687 -1.4479065 13.153687 -3.2340088l0 19.404053c0 1.7861023 -5.889099 3.2340393 -13.153687 3.2340393c-7.2645874 0 -13.153687 -1.447937 -13.153687 -3.2340393z" fill-rule="evenodd"/><path fill="#f8e0e0" d="m816.47284 295.6632l0 0c0 -1.7861023 5.889099 -3.2340088 13.153687 -3.2340088c7.2645874 0 13.153687 1.4479065 13.153687 3.2340088l0 0c0 1.7861023 -5.889099 3.2340088 -13.153687 3.2340088c-7.2645874 0 -13.153687 -1.4479065 -13.153687 -3.2340088z" fill-rule="evenodd"/><path fill="#000000" fill-opacity="0.0" d="m842.7802 295.6632l0 0c0 1.7861023 -5.889099 3.2340088 -13.153687 3.2340088c-7.2645874 0 -13.153687 -1.4479065 -13.153687 -3.2340088l0 0c0 -1.7861023 5.889099 -3.2340088 13.153687 -3.2340088c7.2645874 0 13.153687 1.4479065 13.153687 3.2340088l0 19.404053c0 1.7861023 -5.889099 3.2340393 -13.153687 3.2340393c-7.2645874 0 -13.153687 -1.447937 -13.153687 -3.2340393l0 -19.404053" fill-rule="evenodd"/><path fill="#ffffff" d="m816.47284 276.1619l0 0c0 1.7851562 5.887268 3.2322998 13.149597 3.2322998c7.262329 0 13.149658 -1.4471436 13.149658 -3.2322998l0 19.393707c0 1.7851562 -5.887329 3.2322998 -13.149658 3.2322998c-7.262329 0 -13.149597 -1.4471436 -13.149597 -3.2322998z" fill-rule="evenodd"/><path fill="#ffffff" d="m816.47284 276.1619l0 0c0 -1.7851257 5.887268 -3.2322693 13.149597 -3.2322693c7.262329 0 13.149658 1.4471436 13.149658 3.2322693l0 0c0 1.7851562 -5.887329 3.2322998 -13.149658 3.2322998c-7.262329 0 -13.149597 -1.4471436 -13.149597 -3.2322998z" fill-rule="evenodd"/><path fill="#000000" fill-opacity="0.0" d="m842.7721 276.1619l0 0c0 1.7851562 -5.887329 3.2322998 -13.149658 3.2322998c-7.262329 0 -13.149597 -1.4471436 -13.149597 -3.2322998l0 0c0 -1.7851257 5.887268 -3.2322693 13.149597 -3.2322693c7.262329 0 13.149658 1.4471436 13.149658 3.2322693l0 19.393707c0 1.7851562 -5.887329 3.2322998 -13.149658 3.2322998c-7.262329 0 -13.149597 -1.4471436 -13.149597 -3.2322998l0 -19.393707" fill-rule="evenodd"/><path fill="#f4cccc" d="m816.47284 254.67273l0 0c0 1.7851257 5.887268 3.2322693 13.149597 3.2322693c7.262329 0 13.149658 -1.4471436 13.149658 -3.2322693l0 19.393707c0 1.7851257 -5.887329 3.2322693 -13.149658 3.2322693c-7.262329 0 -13.149597 -1.4471436 -13.149597 -3.2322693z" fill-rule="evenodd"/><path fill="#f8e0e0" d="m816.47284 254.67273l0 0c0 -1.785141 5.887268 -3.2322845 13.149597 -3.2322845c7.262329 0 13.149658 1.4471436 13.149658 3.2322845l0 0c0 1.7851257 -5.887329 3.2322693 -13.149658 3.2322693c-7.262329 0 -13.149597 -1.4471436 -13.149597 -3.2322693z" fill-rule="evenodd"/><path fill="#000000" fill-opacity="0.0" d="m842.7721 254.67273l0 0c0 1.7851257 -5.887329 3.2322693 -13.149658 3.2322693c-7.262329 0 -13.149597 -1.4471436 -13.149597 -3.2322693l0 0c0 -1.785141 5.887268 -3.2322845 13.149597 -3.2322845c7.262329 0 13.149658 1.4471436 13.149658 3.2322845l0 19.393707c0 1.7851257 -5.887329 3.2322693 -13.149658 3.2322693c-7.262329 0 -13.149597 -1.4471436 -13.149597 -3.2322693l0 -19.393707" fill-rule="evenodd"/><path fill="#a4c2f4" d="m813.35724 226.43582l0 0c0 2.1600037 7.123169 3.911026 15.910095 3.911026c8.786926 0 15.910156 -1.7510223 15.910156 -3.911026l0 23.466232c0 2.1600037 -7.12323 3.911026 -15.910156 3.911026c-8.786926 0 -15.910095 -1.7510223 -15.910095 -3.911026z" fill-rule="evenodd"/><path fill="#c8daf8" d="m813.35724 226.43582l0 0c0 -2.160019 7.123169 -3.9110413 15.910095 -3.9110413c8.786926 0 15.910156 1.7510223 15.910156 3.9110413l0 0c0 2.1600037 -7.12323 3.911026 -15.910156 3.911026c-8.786926 0 -15.910095 -1.7510223 -15.910095 -3.911026z" fill-rule="evenodd"/><path fill="#000000" fill-opacity="0.0" d="m845.1775 226.43582l0 0c0 2.1600037 -7.12323 3.911026 -15.910156 3.911026c-8.786926 0 -15.910095 -1.7510223 -15.910095 -3.911026l0 0c0 -2.160019 7.123169 -3.9110413 15.910095 -3.9110413c8.786926 0 15.910156 1.7510223 15.910156 3.9110413l0 23.466232c0 2.1600037 -7.12323 3.911026 -15.910156 3.911026c-8.786926 0 -15.910095 -1.7510223 -15.910095 -3.911026l0 -23.466232" fill-rule="evenodd"/><path fill="#cfe2f3" d="m848.0105 246.46982l-5.251892 12.062988l-26.252136 0l-5.251892 -12.062988z" fill-rule="evenodd"/><path fill="#d5a6bd" d="m810.77234 230.82414l5.251831 -12.062988l26.252197 0l5.251831 12.062988z" fill-rule="evenodd"/><path fill="#000000" fill-opacity="0.0" d="m811.97473 239.63255l5.906433 0l0 6.992111l-5.906433 0z" fill-rule="evenodd"/><path stroke="#999999" stroke-width="1.0" stroke-linejoin="round" stroke-linecap="butt" d="m811.97473 239.63255l5.906433 0l0 6.992111l-5.906433 0z" fill-rule="evenodd"/><path fill="#000000" fill-opacity="0.0" d="m817.7349 239.63255l5.906433 0l0 6.992111l-5.906433 0z" fill-rule="evenodd"/><path stroke="#999999" stroke-width="1.0" stroke-linejoin="round" stroke-linecap="butt" d="m817.7349 239.63255l5.906433 0l0 6.992111l-5.906433 0z" fill-rule="evenodd"/><path fill="#000000" fill-opacity="0.0" d="m823.64136 239.63255l5.906494 0l0 6.992111l-5.906494 0z" fill-rule="evenodd"/><path stroke="#999999" stroke-width="1.0" stroke-linejoin="round" stroke-linecap="butt" d="m823.64136 239.63255l5.906494 0l0 6.992111l-5.906494 0z" fill-rule="evenodd"/><path fill="#000000" fill-opacity="0.0" d="m829.4016 239.63255l5.906433 0l0 6.992111l-5.906433 0z" fill-rule="evenodd"/><path stroke="#999999" stroke-width="1.0" stroke-linejoin="round" stroke-linecap="butt" d="m829.4016 239.63255l5.906433 0l0 6.992111l-5.906433 0z" fill-rule="evenodd"/><path fill="#000000" fill-opacity="0.0" d="m835.30804 239.63255l5.906433 0l0 6.992111l-5.906433 0z" fill-rule="evenodd"/><path stroke="#999999" stroke-width="1.0" stroke-linejoin="round" stroke-linecap="butt" d="m835.30804 239.63255l5.906433 0l0 6.992111l-5.906433 0z" fill-rule="evenodd"/><path fill="#000000" fill-opacity="0.0" d="m841.06824 239.63255l5.906494 0l0 6.992111l-5.906494 0z" fill-rule="evenodd"/><path stroke="#999999" stroke-width="1.0" stroke-linejoin="round" stroke-linecap="butt" d="m841.06824 239.63255l5.906494 0l0 6.992111l-5.906494 0z" fill-rule="evenodd"/><path fill="#6aa84f" d="m635.35956 350.32285l5.4803467 -38.11026l5.4802856 38.11026z" fill-rule="evenodd"/><path fill="#6aa84f" d="m646.3202 352.54855l5.4803467 -38.11023l5.4802856 38.11023z" fill-rule="evenodd"/><path fill="#6aa84f" d="m666.46063 350.32285l5.4802856 -38.11026l5.4803467 38.11026z" fill-rule="evenodd"/><path fill="#6aa84f" d="m693.38715 350.32285l5.4802856 -38.11026l5.4803467 38.11026z" fill-rule="evenodd"/><path fill="#6aa84f" d="m720.31494 349.20996l5.4803467 -38.11023l5.4802856 38.11023z" fill-rule="evenodd"/><path fill="#6aa84f" d="m731.2756 351.4357l5.4803467 -38.11023l5.4802856 38.11023z" fill-rule="evenodd"/><path fill="#6aa84f" d="m751.416 349.20996l5.4802856 -38.11023l5.4803467 38.11023z" fill-rule="evenodd"/><path fill="#6aa84f" d="m778.3425 349.20996l5.4802856 -38.11023l5.4803467 38.11023z" fill-rule="evenodd"/><path fill="#6aa84f" d="m621.8963 358.85565l5.4803467 -38.11026l5.4802856 38.11026z" fill-rule="evenodd"/><path fill="#6aa84f" d="m632.85693 361.08136l5.4803467 -38.11023l5.4802856 38.11023z" fill-rule="evenodd"/><path fill="#6aa84f" d="m652.9974 358.85565l5.4802856 -38.11026l5.4803467 38.11026z" fill-rule="evenodd"/><path fill="#6aa84f" d="m679.9239 358.85565l5.4802856 -38.11026l5.4803467 38.11026z" fill-rule="evenodd"/><path fill="#6aa84f" d="m706.8517 357.74277l5.4803467 -38.11023l5.4802856 38.11023z" fill-rule="evenodd"/><path fill="#6aa84f" d="m717.8123 359.9685l5.4803467 -38.11023l5.4802856 38.11023z" fill-rule="evenodd"/><path fill="#6aa84f" d="m737.95276 357.74277l5.4802856 -38.11023l5.4803467 38.11023z" fill-rule="evenodd"/><path fill="#6aa84f" d="m764.8793 357.74277l5.4802856 -38.11023l5.4803467 38.11023z" fill-rule="evenodd"/><path fill="#6aa84f" d="m805.2677 347.7257l5.4803467 -38.11023l5.4802856 38.11023z" fill-rule="evenodd"/><path fill="#6aa84f" d="m816.22833 349.95145l5.4803467 -38.11023l5.4802856 38.11023z" fill-rule="evenodd"/><path fill="#6aa84f" d="m836.3688 347.7257l5.4802856 -38.11023l5.4803467 38.11023z" fill-rule="evenodd"/><path fill="#6aa84f" d="m863.2953 347.7257l5.4802856 -38.11023l5.4803467 38.11023z" fill-rule="evenodd"/><path fill="#6aa84f" d="m890.2231 346.61285l5.4803467 -38.11023l5.4802856 38.11023z" fill-rule="evenodd"/><path fill="#6aa84f" d="m901.1837 348.8386l5.4803467 -38.11026l5.4802856 38.11026z" fill-rule="evenodd"/><path fill="#6aa84f" d="m921.32416 346.61285l5.4802856 -38.11023l5.4803467 38.11023z" fill-rule="evenodd"/><path fill="#6aa84f" d="m948.2507 346.61285l5.4802856 -38.11023l5.4803467 38.11023z" fill-rule="evenodd"/><path fill="#6aa84f" d="m791.80444 356.25854l5.4803467 -38.11026l5.4802856 38.11026z" fill-rule="evenodd"/><path fill="#6aa84f" d="m802.7651 358.48425l5.4803467 -38.11023l5.4802856 38.11023z" fill-rule="evenodd"/><path fill="#6aa84f" d="m822.9055 356.25854l5.4802856 -38.11026l5.4803467 38.11026z" fill-rule="evenodd"/><path fill="#6aa84f" d="m849.83203 356.25854l5.4802856 -38.11026l5.4803467 38.11026z" fill-rule="evenodd"/><path fill="#6aa84f" d="m876.7598 355.14566l5.4803467 -38.11023l5.4802856 38.11023z" fill-rule="evenodd"/><path fill="#6aa84f" d="m887.72046 357.3714l5.4803467 -38.11023l5.4802856 38.11023z" fill-rule="evenodd"/><path fill="#6aa84f" d="m907.8609 355.14566l5.4802856 -38.11023l5.4803467 38.11023z" fill-rule="evenodd"/><path fill="#6aa84f" d="m934.7874 355.14566l5.4802856 -38.11023l5.4803467 38.11023z" fill-rule="evenodd"/><path fill="#ffff00" d="m362.3517 63.643044l0 0c0 -29.153675 23.633728 -52.7874 52.787384 -52.7874l0 0c14.000092 0 27.426788 5.561513 37.326324 15.461072c9.899567 9.899559 15.46109 23.32624 15.46109 37.32633l0 0c0 29.153679 -23.633728 52.7874 -52.787415 52.7874l0 0c-29.153656 0 -52.787384 -23.63372 -52.787384 -52.7874z" fill-rule="evenodd"/><path fill="#ffffff" d="m357.68842 195.11557l-14.386047 -19.17096l21.743805 13.648727z" fill-rule="evenodd"/><path fill="#ffffff" d="m359.8729 186.25015l23.296967 5.6320496l-25.446259 3.3102112z" fill-rule="evenodd"/><path fill="#f3f3f3" d="m382.65628 191.7137l1.6315918 10.354202l-10.150269 -8.989334z" fill-rule="evenodd"/><path fill="#f3f3f3" d="m348.38425 182.78958l-11.312042 0.076538086l6.323181 -6.869522z" fill-rule="evenodd"/><path fill="#ffffff" d="m349.95267 201.7407l9.959106 -13.1604l-1.346283 16.407852z" fill-rule="evenodd"/><path fill="#ffffff" d="m359.303 186.04776l7.2730103 -2.3144684l-4.0569153 7.664139z" fill-rule="evenodd"/><path fill="#ffffff" d="m266.17398 185.15625l-14.386063 -19.17096l21.74382 13.648727z" fill-rule="evenodd"/><path fill="#ffffff" d="m268.35846 176.29083l23.296967 5.6320496l-25.446259 3.3102112z" fill-rule="evenodd"/><path fill="#f3f3f3" d="m291.14185 181.75438l1.6315613 10.354202l-10.150238 -8.989334z" fill-rule="evenodd"/><path fill="#f3f3f3" d="m256.8698 172.83026l-11.312042 0.076538086l6.3231964 -6.869522z" fill-rule="evenodd"/><path fill="#ffffff" d="m258.43823 191.78139l9.959106 -13.160385l-1.346283 16.407852z" fill-rule="evenodd"/><path fill="#ffffff" d="m267.78857 176.08844l7.2730103 -2.3144531l-4.056946 7.6641235z" fill-rule="evenodd"/><path fill="#ffffff" d="m315.34177 254.77925l-14.710541 -41.794846l30.7518 36.14737z" fill-rule="evenodd"/><path fill="#ffffff" d="m324.11984 240.36255l37.94507 22.876282l-46.703796 -8.30455z" fill-rule="evenodd"/><path fill="#f3f3f3" d="m361.25308 262.65634l-2.8773499 19.16217l-12.900421 -21.489716z" fill-rule="evenodd"/><path fill="#f3f3f3" d="m305.78726 227.87685l-19.986786 -6.151291l14.965912 -8.597778z" fill-rule="evenodd"/><path fill="#ffffff" d="m298.0212 262.1612l24.872284 -17.668716l-11.491669 28.180527z" fill-rule="evenodd"/><path fill="#ffffff" d="m323.22754 239.68901l14.109192 -0.03892517l-11.411804 11.258148z" fill-rule="evenodd"/><path fill="#ffffff" d="m320.0684 172.16492l-10.900024 -14.525436l16.474854 10.341354z" fill-rule="evenodd"/><path fill="#ffffff" d="m321.7235 165.44777l17.651642 4.2673035l-19.28009 2.508072z" fill-rule="evenodd"/><path fill="#f3f3f3" d="m338.98602 169.58739l1.236206 7.845169l-7.6906433 -6.811035z" fill-rule="evenodd"/><path fill="#f3f3f3" d="m313.0188 162.82578l-8.570892 0.0579834l4.7909546 -5.204895z" fill-rule="evenodd"/><path fill="#ffffff" d="m314.20718 177.18465l7.5457764 -9.971359l-1.02005 12.4319z" fill-rule="evenodd"/><path fill="#ffffff" d="m321.29172 165.29442l5.51062 -1.7536163l-3.0738525 5.806961z" fill-rule="evenodd"/></g></svg>